<svg width="141" height="21" viewBox="0 0 141 21" fill="none" xmlns="http://www.w3.org/2000/svg">
<path d="M16.436 0.759999V5.128H11.172V20.5H5.684V5.128H0.476V0.759999H16.436ZM23.9544 5.156V8.376H30.2544V12.548H23.9544V16.104H31.0944V20.5H18.4664V0.759999H31.0944V5.156H23.9544ZM33.1343 10.588C33.1343 8.64667 33.5356 6.92 34.3383 5.408C35.1596 3.87733 36.3169 2.692 37.8103 1.852C39.3036 0.993333 41.0209 0.564 42.9623 0.564C45.4263 0.564 47.4983 1.22667 49.1783 2.552C50.8583 3.85867 51.9409 5.64133 52.4263 7.9H46.5183C46.1636 7.15333 45.6689 6.584 45.0343 6.192C44.4183 5.8 43.6996 5.604 42.8783 5.604C41.6089 5.604 40.5916 6.06133 39.8263 6.976C39.0796 7.872 38.7063 9.076 38.7063 10.588C38.7063 12.1187 39.0796 13.3413 39.8263 14.256C40.5916 15.152 41.6089 15.6 42.8783 15.6C43.6996 15.6 44.4183 15.404 45.0343 15.012C45.6689 14.62 46.1636 14.0507 46.5183 13.304H52.4263C51.9409 15.5627 50.8583 17.3547 49.1783 18.68C47.4983 19.9867 45.4263 20.64 42.9623 20.64C41.0209 20.64 39.3036 20.22 37.8103 19.38C36.3169 18.5213 35.1596 17.336 34.3383 15.824C33.5356 14.2933 33.1343 12.548 33.1343 10.588ZM72.693 0.759999V20.5H67.205V12.576H60.513V20.5H55.025V0.759999H60.513V8.18H67.205V0.759999H72.693ZM94.1176 20.5H88.6296L81.3216 9.468V20.5H75.8336V0.759999H81.3216L88.6296 11.932V0.759999H94.1176V20.5ZM102.732 5.156V8.376H109.032V12.548H102.732V16.104H109.872V20.5H97.2438V0.759999H109.872V5.156H102.732ZM140.388 0.759999L135.544 20.5H128.796L126.08 8.404L123.308 20.5H116.56L111.772 0.759999H117.708L120.004 14.256L123.112 0.759999H129.132L132.156 14.144L134.452 0.759999H140.388Z" fill="white"/>
</svg>
