<svg width="33" height="32" viewBox="0 0 33 32" fill="none" xmlns="http://www.w3.org/2000/svg">
<circle cx="16.5" cy="16" r="16" fill="white"/>
<path d="M24.4442 12.0588C24.4569 12.2338 24.4569 12.4088 24.4569 12.5838C24.4569 17.9213 20.3326 24.0713 12.7944 24.0713C10.4721 24.0713 8.31473 23.4088 6.5 22.2588C6.82996 22.2963 7.14719 22.3088 7.48985 22.3088C9.40607 22.3088 11.1701 21.6713 12.5787 20.5838C10.7767 20.5463 9.2665 19.3838 8.74618 17.7838C9.00001 17.8213 9.2538 17.8463 9.52032 17.8463C9.88833 17.8463 10.2564 17.7963 10.599 17.7088C8.72083 17.3338 7.31215 15.7088 7.31215 13.7463V13.6963C7.85782 13.9963 8.49239 14.1838 9.16493 14.2088C8.06087 13.4838 7.33754 12.2463 7.33754 10.8463C7.33754 10.0963 7.54055 9.40877 7.8959 8.80877C9.91369 11.2588 12.9467 12.8587 16.3477 13.0338C16.2843 12.7338 16.2462 12.4213 16.2462 12.1088C16.2462 9.88377 18.0736 8.07129 20.3452 8.07129C21.5254 8.07129 22.5914 8.55879 23.3401 9.34629C24.2665 9.1713 25.1548 8.83378 25.9416 8.37129C25.637 9.30881 24.9898 10.0963 24.1396 10.5963C24.9645 10.5088 25.764 10.2838 26.5 9.9713C25.9417 10.7713 25.2437 11.4837 24.4442 12.0588Z" fill="#031428"/>
</svg>
