<svg width="33" height="32" viewBox="0 0 33 32" fill="none" xmlns="http://www.w3.org/2000/svg">
<circle cx="16.5" cy="16" r="16" fill="white"/>
<path d="M12.0814 24H8.76429V13.3176H12.0814V24ZM10.4211 11.8604C9.36036 11.8604 8.5 10.9819 8.5 9.92111C8.5 9.4116 8.7024 8.92296 9.06267 8.56268C9.42294 8.2024 9.91157 8 10.4211 8C10.9306 8 11.4192 8.2024 11.7795 8.56268C12.1397 8.92296 12.3421 9.4116 12.3421 9.92111C12.3421 10.9819 11.4814 11.8604 10.4211 11.8604ZM24.4964 24H21.1864V18.7999C21.1864 17.5606 21.1614 15.9712 19.4618 15.9712C17.7371 15.9712 17.4729 17.3177 17.4729 18.7106V24H14.1593V13.3176H17.3407V14.7748H17.3871C17.83 13.9355 18.9118 13.0498 20.5257 13.0498C23.8829 13.0498 24.5 15.2605 24.5 18.132V24H24.4964Z" fill="#031428"/>
</svg>
